<?xml version="1.0" encoding="UTF-8" standalone="no"?>
<svg id="Limousine" width="248px" height="73px" viewBox="0 0 248 73" version="1.1" xmlns="http://www.w3.org/2000/svg" xmlns:xlink="http://www.w3.org/1999/xlink">
    <title>Limousine</title>
    <g id="Page-2" stroke="none" stroke-width="1" fill="none" fill-rule="evenodd">
        <g id="Limousine" transform="translate(1.000000, 1.000000)" stroke="#7C2EA4">
            <ellipse id="Oval-3" cx="42.6734694" cy="53.8764706" rx="16.7346939" ry="16.7058824"></ellipse>
            <ellipse id="Oval-3" cx="210.438776" cy="53.8764706" rx="16.7346939" ry="16.7058824"></ellipse>
            <polyline id="Path-2" points="230.752825 51.7848451 245.777786 51.7848451 240.565597 24.556937 175.168436 21.1015539 159.540754 0.140234472 28.2181367 0.200455038 10.673783 20.8843948 0.144428815 23.1600023 3.32791325 48.9097692 22.0942935 51.7401358"></polyline>
            <path d="M230.95224,51.9889279 C230.95224,41.6092233 221.854268,32.9941176 210.647959,32.9941176 C199.441651,32.9941176 190.032012,41.4085307 190.032012,51.7882353 L63.0143263,51.7882353" id="Oval-4"></path>
            <path d="M21.961684,51.940392 C21.961684,51.8996114 21.9614036,51.907394 21.961684,51.8666684 C22.0327853,41.541661 31.1032637,32.9941176 42.2655439,32.9941176 C53.4718523,32.9941176 62.881491,41.4085307 62.881491,51.7882353 L182.555765,51.7882353" id="Oval-4"></path>
            <polygon id="Path-3" points="122.830711 3.16864144 156.563082 3.16864144 169.550883 20.9649625 122.898337 20.9649625"></polygon>
            <polygon id="Path-3" transform="translate(48.948980, 12.239337) scale(-1, 1) translate(-48.948980, -12.239337) " points="15.4795918 3.34117647 63.8099703 3.34117647 82.4183673 21.1374976 15.5764845 21.1374976"></polygon>
            <polyline id="Path-3" points="119.660763 21.1374976 85.8329327 21.1374976 85.7653061 3.34117647 119.497677 3.34117647 119.497677 21.127951"></polyline>
        </g>
    </g>
</svg>
