<?xml version="1.0" encoding="UTF-8" standalone="no"?>
<svg width="110px" height="108px" viewBox="0 0 110 108" version="1.1" xmlns="http://www.w3.org/2000/svg" xmlns:xlink="http://www.w3.org/1999/xlink">
    <!-- Generator: Sketch 40.3 (33839) - http://www.bohemiancoding.com/sketch -->
    <title>Group 14</title>
    <desc>Created with Sketch.</desc>
    <defs>
        <path d="M62.0686365,28.2477899 L62.3957597,28.263432 L62.3957597,31.1930898 C62.3957597,38.8506378 56.184901,45.0583069 48.5287506,45.0583069 L35.4950562,45.0583069 L36.4696655,44.0711869 M15.8876253,45.0583069 L13.8670091,45.0583069 C6.20847146,45.0583069 0,38.8522546 0,31.1947188 L0,13.8635881 C0,6.20693983 6.2049198,0 13.8670945,0 L25.2511618,0" id="path-1"></path>
        <mask id="mask-2" maskContentUnits="userSpaceOnUse" maskUnits="objectBoundingBox" x="0" y="0" width="62.3957597" height="45.0583069" fill="white">
            <use xlink:href="#path-1"></use>
        </mask>
        <path d="M77.4169611,31.2740058 L77.4169611,38.6644886 C77.4169611,48.1561798 69.7108956,55.8507158 60.2115979,55.8507158 L43.7813323,55.8507158 C43.7813323,55.8507158 44.1859944,55.2978068 44.7793232,54.8642764 M20.3851435,55.8507158 L17.2053632,55.8507158 C7.70310348,55.8507158 0,48.1581838 0,38.6665077 L0,25.4753817" id="path-3"></path>
        <mask id="mask-4" maskContentUnits="userSpaceOnUse" maskUnits="objectBoundingBox" x="0" y="0" width="77.4169611" height="55.8507158" fill="white">
            <use xlink:href="#path-3"></use>
        </mask>
        <path d="M25.0353357,45.7147231 L25.0353357,42.507417 L25.0353357,27.9673926 C25.0353357,18.4768166 32.7340325,10.7831846 42.2408047,10.7831846 L58.7306258,10.7831846 L70.2999268,10.7831846" id="path-5"></path>
        <mask id="mask-6" maskContentUnits="userSpaceOnUse" maskUnits="objectBoundingBox" x="0" y="0" width="45.2645911" height="34.9315385" fill="white">
            <use xlink:href="#path-5"></use>
        </mask>
    </defs>
    <g id="Page-2" stroke="none" stroke-width="1" fill="none" fill-rule="evenodd">
        <g id="Group-14" transform="translate(0.000000, 1.000000)" stroke="#7C2EA4">
            <g id="Group-13" transform="translate(0.000000, 41.977397)">
                <use id="Rectangle-4" mask="url(#mask-2)" stroke-width="2" xlink:href="#path-1"></use>
                <path d="M36.8352661,44.4200639 L16.1874245,64.1532149 C16.1874245,64.1532149 18.1075304,44.665441 15.864624,44.5434159" id="Path-4"></path>
            </g>
            <g id="Group-13" transform="translate(63.452297, 50.783185) scale(-1, 1) translate(-63.452297, -50.783185) translate(24.452297, 10.783185)">
                <use id="Rectangle-4" mask="url(#mask-4)" stroke-width="2" xlink:href="#path-3"></use>
                <path d="M45.103578,55.2151235 L20.0843971,79.5192545 C20.0843971,79.5192545 22.4447568,55.5030778 19.6618915,55.3518252" id="Path-4"></path>
            </g>
            <use id="Rectangle-4" mask="url(#mask-6)" stroke-width="2" xlink:href="#path-5"></use>
            <ellipse id="Oval-6" cx="88.2014134" cy="20.9886985" rx="20.7985866" ry="20.9886985"></ellipse>
            <g id="heart" transform="translate(75.491166, 9.242730)">
                <g id="left">
                    <path d="M13.0234209,2.41041694 C11.8737906,1.25778774 8.24526951,-1.6009879 3.04961131,1.74423325 C-3.3034239,5.83463082 3.04961131,14.4991653 3.04961131,14.4991653 C3.04961131,14.4991653 4.5140579,16.4286613 6.48128651,18.2660554 C9.06958804,20.6835325 12.4081631,23.1700732 13.2299564,23.1700732" id="Path-5"></path>
                </g>
                <g id="right" transform="translate(18.805654, 12.000000) scale(-1, 1) translate(-18.805654, -12.000000) translate(11.805654, 0.000000)">
                    <path d="M13.0418504,2.4289617 C11.9129811,1.28888196 8.27336068,-1.61907438 3.04961131,1.74423325 C-3.3034239,5.83463082 3.04961131,14.4991653 3.04961131,14.4991653 C3.04961131,14.4991653 4.5140579,16.4286613 6.48128651,18.2660554 C9.06958804,20.6835325 12.4081631,23.1700732 13.2299564,23.1700732" id="Path-5"></path>
                </g>
            </g>
        </g>
    </g>
</svg>