<?xml version="1.0" encoding="UTF-8" standalone="no"?>
<svg id="flowers" width="122px" height="109px" viewBox="0 0 122 109" version="1.1" xmlns="http://www.w3.org/2000/svg" xmlns:xlink="http://www.w3.org/1999/xlink">
    <title>flowers</title>
    <g id="Page-2" stroke="none" stroke-width="1" fill="none" fill-rule="evenodd">
        <g id="flowers" transform="translate(68.129556, 64.581743) rotate(-51.000000) translate(-68.129556, -64.581743) translate(25.129556, -2.418257)">
            <path d="M36.4886422,108.314037 L32.3185117,122.335271" id="Line" stroke="#7C2EA4" stroke-linecap="square"></path>
            <path d="M54.5592079,108.314037 L50.3890773,122.335271" id="Line" stroke="#7C2EA4" stroke-linecap="square" transform="translate(52.474143, 115.324654) scale(-1, 1) translate(-52.474143, -115.324654) "></path>
            <path d="M39.2687292,108.314037 L38.5737075,125.84058" id="Line" stroke="#7C2EA4" stroke-linecap="square"></path>
            <path d="M48.3040121,108.314037 L47.6089903,125.84058" id="Line" stroke="#7C2EA4" stroke-linecap="square" transform="translate(47.956501, 117.077308) scale(-1, 1) translate(-47.956501, -117.077308) "></path>
            <path d="M42.0488163,108.314037 L39.963751,132.851197" id="Line" stroke="#7C2EA4" stroke-linecap="square"></path>
            <path d="M46.2189468,108.314037 L44.1338815,132.851197" id="Line" stroke="#7C2EA4" stroke-linecap="square" transform="translate(45.176414, 120.582617) scale(-1, 1) translate(-45.176414, -120.582617) "></path>
            <path d="M1.63103471,27.3825492 L23.6868679,69.1839891 C23.6868679,69.1839891 36.8151342,104.013539 32.9825055,107.961702 L52.6649324,107.961702" id="Path-6" stroke="#7C2EA4"></path>
            <path d="M33.6020355,27.3825492 L55.6578687,69.1839891 C55.6578687,69.1839891 68.786135,104.013539 64.9535063,107.961702 L84.6359332,107.961702" id="Path-6" stroke="#7C2EA4" transform="translate(59.118984, 67.672125) scale(-1, 1) translate(-59.118984, -67.672125) "></path>
            <path d="M1.97777642,27.415412 C1.97777642,27.415412 14.9438569,34.5082373 28.5230264,30.9618247 C28.5230264,30.9618247 47.6341018,39.0002967 56.3875461,30.8280873 C56.3875461,30.8280873 79.2467394,36.8861074 84.1900047,27.7511783" id="Path-7" stroke="#7C2EA4"></path>
            <path d="M28.8295374,30.8742913 L55.2542296,91.4885551" id="Path-8" stroke="#7C2EA4"></path>
            <g id="flower-left" stroke="#7C2EA4">
                <g id="Group-18" transform="translate(10.977316, 17.571148) rotate(-24.000000) translate(-10.977316, -17.571148) translate(3.477316, 8.071148)">
                    <g id="Group-17" transform="translate(0.000000, 1.402123)">
                        <path d="M5.66359836,0.299133987 C5.66359836,0.299133987 -5.70483329,14.9757991 5.66359836,16.826664" id="Path-10"></path>
                        <path d="M12.9774539,1.05030936 C12.9774539,1.05030936 4.77634645,11.6379534 9.27092887,15.9620914" id="Path-10" transform="translate(10.451136, 8.506200) scale(-1, 1) rotate(-11.000000) translate(-10.451136, -8.506200) "></path>
                    </g>
                    <polyline id="Path-11" points="9.39815739 2.4008545 8.18544626 4.74677352 7.69197404 0.249295097 6.09457544 3.53894499 5.57494382 2.00822098"></polyline>
                </g>
                <g id="Group-18" transform="translate(22.879006, 14.474691) rotate(-9.000000) translate(-22.879006, -14.474691) translate(15.879006, 4.974691)">
                    <g id="Group-17" transform="translate(-0.000000, 1.402123)">
                        <path d="M5.66359836,0.299133987 C5.66359836,0.299133987 -4.54570079,13.4793571 4.06020924,16.4344775" id="Path-10"></path>
                        <path d="M12.9744892,1.0500214 C12.9744892,1.0500214 9.96897705,4.93014279 8.59400912,8.95187582" id="Path-10" transform="translate(10.784249, 5.000949) scale(-1, 1) rotate(-11.000000) translate(-10.784249, -5.000949) "></path>
                    </g>
                    <polyline id="Path-11" points="9.39815739 2.4008545 8.18544626 4.74677352 7.69197404 0.249295097 6.09457544 3.53894499 5.57494382 2.00822098"></polyline>
                </g>
                <g id="Group-18" transform="translate(27.495110, 21.401621) rotate(-13.000000) translate(-27.495110, -21.401621) translate(19.995110, 11.901621)">
                    <g id="Group-17" transform="translate(-0.000000, 1.402123)">
                        <path d="M5.66359836,0.299133987 C5.66359836,0.299133987 3.98030501,2.47226865 2.55688783,5.25156861 M1.98162394,6.44586392 C0.261107642,10.2691565 -0.547854828,14.7578365 3.92592294,16.3869849" id="Path-10"></path>
                        <path d="M12.978871,1.050447 C12.978871,1.050447 4.79666521,11.613689 9.25684917,15.9472463" id="Path-10" transform="translate(10.452553, 8.498847) scale(-1, 1) rotate(-11.000000) translate(-10.452553, -8.498847) "></path>
                    </g>
                    <polyline id="Path-11" points="9.39815739 2.4008545 8.18544626 4.74677352 7.69197404 0.249295097 6.09457544 3.53894499 5.57494382 2.00822098"></polyline>
                </g>
                <g id="Group-18" transform="translate(33.504919, 9.345794) rotate(-4.000000) translate(-33.504919, -9.345794) translate(27.504919, 3.345794)">
                    <g id="Group-17" transform="translate(0.000000, 1.402123)">
                        <path d="M4.96857661,0.299133987 C4.96857661,0.299133987 1.51150861,4.76221482 0.316540689,9.07644681" id="Path-10"></path>
                        <path d="M10.7213457,0.898687534 C10.7213457,0.898687534 9.5393543,2.42464046 8.31875642,4.55452225" id="Path-10" transform="translate(9.520051, 2.726605) scale(-1, 1) rotate(-11.000000) translate(-9.520051, -2.726605) "></path>
                    </g>
                    <polyline id="Path-11" points="8.70313563 2.4008545 7.49042451 4.74677352 6.99695229 0.249295097 5.39955368 3.53894499 4.87992207 2.00822098"></polyline>
                </g>
                <g id="Group-18" transform="translate(40.181897, 23.540718) rotate(2.000000) translate(-40.181897, -23.540718) translate(32.681897, 14.040718)">
                    <g id="Group-17" transform="translate(0.000000, 1.402123)">
                        <path d="M5.66359836,0.299133987 C5.66359836,0.299133987 -4.40785753,13.3014012 3.88790579,16.373025" id="Path-10"></path>
                        <path d="M12.9677252,1.04936445 C12.9677252,1.04936445 4.63449447,11.8075799 9.37184296,16.0640063" id="Path-10" transform="translate(10.441407, 8.556685) scale(-1, 1) rotate(-11.000000) translate(-10.441407, -8.556685) "></path>
                    </g>
                    <polyline id="Path-11" points="9.39815739 2.4008545 8.18544626 4.74677352 7.69197404 0.249295097 6.09457544 3.53894499 5.57494382 2.00822098"></polyline>
                </g>
                <g id="Group-18" transform="translate(43.578218, 9.188253) rotate(-2.000000) translate(-43.578218, -9.188253) translate(36.078218, 0.688253)">
                    <g id="Group-17" transform="translate(-0.000000, 1.402123)">
                        <path d="M5.66359836,0.299133987 C5.66359836,0.299133987 -1.69729493,9.8020601 1.35007285,14.4788894" id="Path-10"></path>
                        <path d="M13.1273511,1.06486825 C13.1273511,1.06486825 6.58943056,9.50533508 8.38768045,14.3918212" id="Path-10" transform="translate(10.601033, 7.728345) scale(-1, 1) rotate(-11.000000) translate(-10.601033, -7.728345) "></path>
                    </g>
                    <polyline id="Path-11" points="9.39815739 2.4008545 8.18544626 4.74677352 7.69197404 0.249295097 6.09457544 3.53894499 5.57494382 2.00822098"></polyline>
                </g>
            </g>
            <g id="flower-right" transform="translate(62.987676, 18.304247) scale(-1, 1) translate(-62.987676, -18.304247) translate(40.487676, 2.804247)">
                <g id="flower" transform="translate(10.977316, 14.766901) rotate(-24.000000) translate(-10.977316, -14.766901) translate(3.477316, 5.266901)" stroke="#7C2EA4">
                    <path d="M5.66359836,1.70125744 C5.66359836,1.70125744 -5.70483329,16.3779226 5.66359836,18.2287875" id="Path-10"></path>
                    <path d="M12.9824208,2.45291522 C12.9824208,2.45291522 4.84719552,12.9555053 9.22224253,17.3121832" id="Path-10" transform="translate(10.456103, 9.882549) scale(-1, 1) rotate(-11.000000) translate(-10.456103, -9.882549) "></path>
                    <polyline id="Path-11" points="9.39815739 2.4008545 8.18544626 4.74677352 7.69197404 0.249295097 6.09457544 3.53894499 5.57494382 2.00822098"></polyline>
                </g>
                <g id="flower" transform="translate(22.800789, 11.176599) rotate(-9.000000) translate(-22.800789, -11.176599) translate(15.800789, 2.176599)" stroke="#7C2EA4">
                    <path d="M5.66359836,1.70125744 C5.66359836,1.70125744 -4.54570079,14.8814805 4.06020924,17.8366009" id="Path-10"></path>
                    <path d="M12.9744892,2.45214485 C12.9744892,2.45214485 9.96897705,6.33226624 8.59400912,10.3539993" id="Path-10" transform="translate(10.784249, 6.403072) scale(-1, 1) rotate(-11.000000) translate(-10.784249, -6.403072) "></path>
                    <polyline id="Path-11" points="9.39815739 2.4008545 8.18544626 4.74677352 7.69197404 0.249295097 6.09457544 3.53894499 5.57494382 2.00822098"></polyline>
                </g>
                <g id="flower" transform="translate(27.495110, 18.597374) rotate(-13.000000) translate(-27.495110, -18.597374) translate(19.995110, 9.097374)" stroke="#7C2EA4">
                    <path d="M5.66359836,1.70125744 C5.66359836,1.70125744 3.64560611,4.30648896 2.16026779,7.46011426 M1.5302438,8.92529678 C0.221789458,12.3099097 -0.103272147,15.9475053 3.37657549,17.5628163" id="Path-10"></path>
                    <path d="M12.9450121,2.44928187 C12.9450121,2.44928187 4.28548073,13.628752 9.63960452,17.7040642" id="Path-10" transform="translate(10.418694, 10.076673) scale(-1, 1) rotate(-11.000000) translate(-10.418694, -10.076673) "></path>
                    <polyline id="Path-11" points="9.39815739 2.4008545 8.18544626 4.74677352 7.69197404 0.249295097 6.09457544 3.53894499 5.57494382 2.00822098"></polyline>
                </g>
                <g id="flower" transform="translate(33.504919, 6.541547) rotate(-4.000000) translate(-33.504919, -6.541547) translate(27.504919, 0.541547)">
                    <g id="Group-17" transform="translate(0.000000, 1.402123)"></g>
                    <path d="M4.96857661,1.70125744 C4.96857661,1.70125744 1.51150861,6.16433827 0.316540689,10.4785703" id="Path-10" stroke="#7C2EA4"></path>
                    <path d="M10.7213457,2.30081098 C10.7213457,2.30081098 9.5393543,3.82676391 8.31875642,5.9566457" id="Path-10" stroke="#7C2EA4" transform="translate(9.520051, 4.128728) scale(-1, 1) rotate(-11.000000) translate(-9.520051, -4.128728) "></path>
                    <polyline id="Path-11" stroke="#7C2EA4" points="8.70313563 2.4008545 7.49042451 4.74677352 6.99695229 0.249295097 5.39955368 3.53894499 4.87992207 2.00822098"></polyline>
                </g>
                <g id="flower" transform="translate(38.183115, 20.666040) rotate(2.000000) translate(-38.183115, -20.666040) translate(32.683115, 11.166040)" stroke="#7C2EA4">
                    <path d="M5.66359836,1.70125744 C5.66359836,1.70125744 -4.16315244,14.3876099 3.59188528,17.6581045" id="Path-10"></path>
                    <path d="M10.3461679,17.3549563 C10.1200092,17.5146874 9.87135311,17.6574472 9.59862178,17.7813633" id="Path-10"></path>
                    <polyline id="Path-11" points="9.71111294 3.43336713 9.39815739 2.4008545 8.18544626 4.74677352 7.69197404 0.249295097 6.09457544 3.53894499 5.57494382 2.00822098"></polyline>
                </g>
            </g>
            <g id="leafs" transform="translate(9.000000, 19.000000)" stroke="#7C2EA4">
                <path d="M67.3607606,12.9598034 C64.9545572,9.69801124 58.0763198,1.12678849 52.3009582,1.2180768 C52.3009582,1.2180768 54.4249107,4.10844434 56.2032704,7.22015946 C57.6449078,9.74268902 58.8594346,12.4106799 58.5312432,13.8022582" id="Path-13" transform="translate(59.830859, 7.509806) scale(-1, 1) translate(-59.830859, -7.509806) "></path>
                <path d="M26.6612688,14.1799728 L26.4774878,13.8125831 C26.4774878,13.8125831 16.260788,0.505733991 11.9521641,0.505733991 C11.9521641,0.505733991 18.1906091,11.7371727 16.6893946,12.4825588" id="Path-14"></path>
                <path d="M55.8521826,14.8810346 L55.6684016,14.5136448 C55.6684016,14.5136448 45.4517018,1.20679572 41.1430779,1.20679572 C41.1430779,1.20679572 46.1260195,10.177878 46.1134672,12.616754" id="Path-14" transform="translate(48.497630, 8.043915) scale(-1, 1) translate(-48.497630, -8.043915) "></path>
                <path d="M27.1089982,14.085842 C27.1089982,14.085842 28.3181302,4.69259061 30.1028635,3.0690427 C30.1028635,3.0690427 34.8628472,14.6485336 33.5600126,15.3709123" id="Path-15"></path>
                <path d="M34.0592158,14.7869037 C34.0592158,14.7869037 35.2683478,5.39365234 37.053081,3.77010442 C37.053081,3.77010442 40.8872874,13.0974804 40.7314138,15.531811" id="Path-15" transform="translate(37.397628, 9.650958) scale(-1, 1) translate(-37.397628, -9.650958) "></path>
                <path d="M15.2341289,12.9598034 C12.8279254,9.69801124 5.94968805,1.12678849 0.174326443,1.2180768 C0.174326443,1.2180768 2.29827896,4.10844434 4.07663868,7.22015946 C5.20378911,9.19241008 6.19210766,11.2535807 6.41280693,12.7240943" id="Path-13"></path>
            </g>
        </g>
    </g>
</svg>
