<?xml version="1.0" encoding="UTF-8" standalone="no"?>
<svg id="orders" width="77px" height="99px" viewBox="0 0 77 99" version="1.1" xmlns="http://www.w3.org/2000/svg" xmlns:xlink="http://www.w3.org/1999/xlink">
    <title>orders</title>
    <defs>
        <path d="M56.5266041,12.1225744 L72.3878451,12.1225744 C74.7803122,12.1225744 76.7197901,14.067655 76.7197901,16.4718734 L76.7197901,94.5791331 C76.7197901,96.9811846 74.7819239,98.9284321 72.3899473,98.9284321 L4.59054636,98.9284321 C2.19924022,98.9284321 0.260703576,96.9833514 0.260703576,94.5791331 L0.260703576,16.4718734 L0.260703576,16.4718734 C0.260703576,14.0698219 2.19595438,12.1225744 4.58719952,12.1225744 L19.9755009,12.1225744" id="path-1"></path>
        <mask id="mask-2" maskContentUnits="userSpaceOnUse" maskUnits="objectBoundingBox" x="0" y="0" width="76.4590865" height="86.8058577" fill="white">
            <use xlink:href="#path-1"></use>
        </mask>
        <path d="M32.2507183,4.82926829 L26.9750583,4.82926829 C22.9710795,4.82926829 19.73125,8.07247389 19.73125,12.0731707 C19.73125,16.065727 22.9744134,19.3170732 26.9750583,19.3170732 L49.5436917,19.3170732 C53.5476705,19.3170732 56.7875,16.0738676 56.7875,12.0731707 C56.7875,8.0806145 53.5443366,4.82926829 49.5436917,4.82926829 L44.7492817,4.82926829 C44.5937832,2.14090311 41.8553621,0 38.5,0 C35.1446379,0 32.4062168,2.14090311 32.2507183,4.82926829 L32.2507183,4.82926829 Z" id="path-3"></path>
        <mask id="mask-4" maskContentUnits="userSpaceOnUse" maskUnits="objectBoundingBox" x="0" y="0" width="37.05625" height="19.3170732" fill="white">
            <use xlink:href="#path-3"></use>
        </mask>
    </defs>
    <g id="Page-2" stroke="none" stroke-width="1" fill="none" fill-rule="evenodd">
        <g id="orders" stroke="#7C2EA4">
            <use id="Rectangle-86" mask="url(#mask-2)" stroke-width="2" xlink:href="#path-1"></use>
            <use id="Combined-Shape" mask="url(#mask-4)" stroke-width="2" xlink:href="#path-3"></use>
            <path d="M15.159375,49.5 L61.840625,49.5" id="Line" stroke-linecap="square"></path>
            <path d="M15.159375,37.9097561 L61.840625,37.9097561" id="Line" stroke-linecap="square"></path>
            <path d="M14.678125,72.6804878 L61.359375,72.6804878" id="Line" stroke-linecap="square"></path>
            <path d="M15.159375,61.0902439 L61.840625,61.0902439" id="Line" stroke-linecap="square"></path>
        </g>
    </g>
</svg>
